<?xml version="1.0" encoding="utf-8" standalone="no"?>
<!DOCTYPE svg PUBLIC "-//W3C//DTD SVG 1.1//EN"
  "http://www.w3.org/Graphics/SVG/1.1/DTD/svg11.dtd">
<svg xmlns:xlink="http://www.w3.org/1999/xlink" width="718.799682pt" height="320.311353pt" viewBox="0 0 718.799682 320.311353" xmlns="http://www.w3.org/2000/svg" version="1.1">
 <metadata>
  <rdf:RDF xmlns:dc="http://purl.org/dc/elements/1.1/" xmlns:cc="http://creativecommons.org/ns#" xmlns:rdf="http://www.w3.org/1999/02/22-rdf-syntax-ns#">
   <cc:Work>
    <dc:type rdf:resource="http://purl.org/dc/dcmitype/StillImage"/>
    <dc:date>2023-05-14T22:19:57.302086</dc:date>
    <dc:format>image/svg+xml</dc:format>
    <dc:creator>
     <cc:Agent>
      <dc:title>Matplotlib v3.7.1, https://matplotlib.org/</dc:title>
     </cc:Agent>
    </dc:creator>
   </cc:Work>
  </rdf:RDF>
 </metadata>
 <defs>
  <style type="text/css">*{stroke-linejoin: round; stroke-linecap: butt}</style>
 </defs>
 <g id="figure_1">
  <g id="patch_1">
   <path d="M 0 320.311353 
L 718.799682 320.311353 
L 718.799682 0 
L 0 0 
L 0 320.311353 
z
" style="fill: none"/>
  </g>
  <g id="axes_1">
   <g id="patch_2">
    <path d="M 41.999682 284.4 
L 711.599682 284.4 
L 711.599682 7.2 
L 41.999682 7.2 
L 41.999682 284.4 
z
" style="fill: none"/>
   </g>
   <g id="matplotlib.axis_1">
    <g id="xtick_1">
     <g id="line2d_1">
      <path d="M 41.999682 284.4 
L 41.999682 7.2 
" clip-path="url(#p3f7feba8a0)" style="fill: none; stroke: #b0b0b0; stroke-width: 0.8; stroke-linecap: square"/>
     </g>
     <g id="line2d_2">
      <defs>
       <path id="mae6777df2f" d="M 0 0 
L 0 3.5 
" style="stroke: #000000; stroke-width: 0.8"/>
      </defs>
      <g>
       <use xlink:href="#mae6777df2f" x="41.999682" y="284.4" style="stroke: #000000; stroke-width: 0.8"/>
      </g>
     </g>
     <g id="text_1">
      <!-- $\mathdefault{−100}$ -->
      <g transform="translate(30.653308 298.318498) scale(0.1 -0.1)">
       <defs>
        <path id="CMSY10-0" d="M 4218 1472 
C 4326 1472 4442 1472 4442 1600 
C 4442 1728 4326 1728 4218 1728 
L 755 1728 
C 646 1728 531 1728 531 1600 
C 531 1472 646 1472 755 1472 
L 4218 1472 
z
" transform="scale(0.015625)"/>
        <path id="CMR17-31" d="M 1702 4058 
C 1702 4192 1696 4192 1606 4192 
C 1357 3916 979 3827 621 3827 
C 602 3827 570 3827 563 3808 
C 557 3795 557 3782 557 3648 
C 755 3648 1088 3686 1344 3839 
L 1344 461 
C 1344 236 1331 160 781 160 
L 589 160 
L 589 0 
C 896 0 1216 0 1523 0 
C 1830 0 2150 0 2458 0 
L 2458 160 
L 2266 160 
C 1715 160 1702 230 1702 458 
L 1702 4058 
z
" transform="scale(0.015625)"/>
        <path id="CMR17-30" d="M 2688 2025 
C 2688 2416 2682 3080 2413 3591 
C 2176 4039 1798 4198 1466 4198 
C 1158 4198 768 4058 525 3597 
C 269 3118 243 2524 243 2025 
C 243 1661 250 1106 448 619 
C 723 -39 1216 -128 1466 -128 
C 1760 -128 2208 -7 2470 600 
C 2662 1042 2688 1559 2688 2025 
z
M 1466 -26 
C 1056 -26 813 325 723 812 
C 653 1188 653 1738 653 2096 
C 653 2588 653 2997 736 3387 
C 858 3929 1216 4096 1466 4096 
C 1728 4096 2067 3923 2189 3400 
C 2272 3036 2278 2607 2278 2096 
C 2278 1680 2278 1169 2202 792 
C 2067 95 1690 -26 1466 -26 
z
" transform="scale(0.015625)"/>
       </defs>
       <use xlink:href="#CMSY10-0" transform="scale(0.996264)"/>
       <use xlink:href="#CMR17-31" transform="translate(77.487468 0) scale(0.996264)"/>
       <use xlink:href="#CMR17-30" transform="translate(123.177945 0) scale(0.996264)"/>
       <use xlink:href="#CMR17-30" transform="translate(168.868422 0) scale(0.996264)"/>
      </g>
     </g>
    </g>
    <g id="xtick_2">
     <g id="line2d_3">
      <path d="M 113.845176 284.4 
L 113.845176 7.2 
" clip-path="url(#p3f7feba8a0)" style="fill: none; stroke: #b0b0b0; stroke-width: 0.8; stroke-linecap: square"/>
     </g>
     <g id="line2d_4">
      <g>
       <use xlink:href="#mae6777df2f" x="113.845176" y="284.4" style="stroke: #000000; stroke-width: 0.8"/>
      </g>
     </g>
     <g id="text_2">
      <!-- $\mathdefault{0}$ -->
      <g transform="translate(111.354508 298.318498) scale(0.1 -0.1)">
       <use xlink:href="#CMR17-30" transform="scale(0.996264)"/>
      </g>
     </g>
    </g>
    <g id="xtick_3">
     <g id="line2d_5">
      <path d="M 185.69067 284.4 
L 185.69067 7.2 
" clip-path="url(#p3f7feba8a0)" style="fill: none; stroke: #b0b0b0; stroke-width: 0.8; stroke-linecap: square"/>
     </g>
     <g id="line2d_6">
      <g>
       <use xlink:href="#mae6777df2f" x="185.69067" y="284.4" style="stroke: #000000; stroke-width: 0.8"/>
      </g>
     </g>
     <g id="text_3">
      <!-- $\mathdefault{100}$ -->
      <g transform="translate(178.218667 298.318498) scale(0.1 -0.1)">
       <use xlink:href="#CMR17-31" transform="scale(0.996264)"/>
       <use xlink:href="#CMR17-30" transform="translate(45.690477 0) scale(0.996264)"/>
       <use xlink:href="#CMR17-30" transform="translate(91.380954 0) scale(0.996264)"/>
      </g>
     </g>
    </g>
    <g id="xtick_4">
     <g id="line2d_7">
      <path d="M 257.536163 284.4 
L 257.536163 7.2 
" clip-path="url(#p3f7feba8a0)" style="fill: none; stroke: #b0b0b0; stroke-width: 0.8; stroke-linecap: square"/>
     </g>
     <g id="line2d_8">
      <g>
       <use xlink:href="#mae6777df2f" x="257.536163" y="284.4" style="stroke: #000000; stroke-width: 0.8"/>
      </g>
     </g>
     <g id="text_4">
      <!-- $\mathdefault{200}$ -->
      <g transform="translate(250.06416 298.318498) scale(0.1 -0.1)">
       <defs>
        <path id="CMR17-32" d="M 2669 989 
L 2554 989 
C 2490 536 2438 459 2413 420 
C 2381 369 1920 369 1830 369 
L 602 369 
C 832 619 1280 1072 1824 1597 
C 2214 1967 2669 2402 2669 3035 
C 2669 3790 2067 4224 1395 4224 
C 691 4224 262 3604 262 3030 
C 262 2780 448 2748 525 2748 
C 589 2748 781 2787 781 3010 
C 781 3207 614 3264 525 3264 
C 486 3264 448 3258 422 3245 
C 544 3790 915 4058 1306 4058 
C 1862 4058 2227 3617 2227 3035 
C 2227 2479 1901 2000 1536 1584 
L 262 146 
L 262 0 
L 2515 0 
L 2669 989 
z
" transform="scale(0.015625)"/>
       </defs>
       <use xlink:href="#CMR17-32" transform="scale(0.996264)"/>
       <use xlink:href="#CMR17-30" transform="translate(45.690477 0) scale(0.996264)"/>
       <use xlink:href="#CMR17-30" transform="translate(91.380954 0) scale(0.996264)"/>
      </g>
     </g>
    </g>
    <g id="xtick_5">
     <g id="line2d_9">
      <path d="M 329.381657 284.4 
L 329.381657 7.2 
" clip-path="url(#p3f7feba8a0)" style="fill: none; stroke: #b0b0b0; stroke-width: 0.8; stroke-linecap: square"/>
     </g>
     <g id="line2d_10">
      <g>
       <use xlink:href="#mae6777df2f" x="329.381657" y="284.4" style="stroke: #000000; stroke-width: 0.8"/>
      </g>
     </g>
     <g id="text_5">
      <!-- $\mathdefault{300}$ -->
      <g transform="translate(321.909654 298.318498) scale(0.1 -0.1)">
       <defs>
        <path id="CMR17-33" d="M 1414 2157 
C 1984 2157 2234 1662 2234 1090 
C 2234 320 1824 25 1453 25 
C 1114 25 563 194 390 693 
C 422 680 454 680 486 680 
C 640 680 755 782 755 948 
C 755 1133 614 1216 486 1216 
C 378 1216 211 1165 211 926 
C 211 335 787 -128 1466 -128 
C 2176 -128 2720 430 2720 1085 
C 2720 1707 2208 2157 1600 2227 
C 2086 2328 2554 2756 2554 3329 
C 2554 3820 2048 4179 1472 4179 
C 890 4179 378 3829 378 3329 
C 378 3110 544 3072 627 3072 
C 762 3072 877 3155 877 3321 
C 877 3486 762 3569 627 3569 
C 602 3569 570 3569 544 3557 
C 730 3959 1235 4032 1459 4032 
C 1683 4032 2106 3925 2106 3320 
C 2106 3143 2080 2828 1862 2550 
C 1670 2304 1453 2304 1242 2284 
C 1210 2284 1062 2269 1037 2269 
C 992 2263 966 2257 966 2208 
C 966 2163 973 2157 1101 2157 
L 1414 2157 
z
" transform="scale(0.015625)"/>
       </defs>
       <use xlink:href="#CMR17-33" transform="scale(0.996264)"/>
       <use xlink:href="#CMR17-30" transform="translate(45.690477 0) scale(0.996264)"/>
       <use xlink:href="#CMR17-30" transform="translate(91.380954 0) scale(0.996264)"/>
      </g>
     </g>
    </g>
    <g id="xtick_6">
     <g id="line2d_11">
      <path d="M 401.22715 284.4 
L 401.22715 7.2 
" clip-path="url(#p3f7feba8a0)" style="fill: none; stroke: #b0b0b0; stroke-width: 0.8; stroke-linecap: square"/>
     </g>
     <g id="line2d_12">
      <g>
       <use xlink:href="#mae6777df2f" x="401.22715" y="284.4" style="stroke: #000000; stroke-width: 0.8"/>
      </g>
     </g>
     <g id="text_6">
      <!-- $\mathdefault{400}$ -->
      <g transform="translate(393.755147 298.318498) scale(0.1 -0.1)">
       <defs>
        <path id="CMR17-34" d="M 2150 4122 
C 2150 4256 2144 4256 2029 4256 
L 128 1254 
L 128 1088 
L 1779 1088 
L 1779 457 
C 1779 224 1766 160 1318 160 
L 1197 160 
L 1197 0 
C 1402 0 1747 0 1965 0 
C 2182 0 2528 0 2733 0 
L 2733 160 
L 2611 160 
C 2163 160 2150 224 2150 457 
L 2150 1088 
L 2803 1088 
L 2803 1254 
L 2150 1254 
L 2150 4122 
z
M 1798 3703 
L 1798 1254 
L 256 1254 
L 1798 3703 
z
" transform="scale(0.015625)"/>
       </defs>
       <use xlink:href="#CMR17-34" transform="scale(0.996264)"/>
       <use xlink:href="#CMR17-30" transform="translate(45.690477 0) scale(0.996264)"/>
       <use xlink:href="#CMR17-30" transform="translate(91.380954 0) scale(0.996264)"/>
      </g>
     </g>
    </g>
    <g id="xtick_7">
     <g id="line2d_13">
      <path d="M 473.072644 284.4 
L 473.072644 7.2 
" clip-path="url(#p3f7feba8a0)" style="fill: none; stroke: #b0b0b0; stroke-width: 0.8; stroke-linecap: square"/>
     </g>
     <g id="line2d_14">
      <g>
       <use xlink:href="#mae6777df2f" x="473.072644" y="284.4" style="stroke: #000000; stroke-width: 0.8"/>
      </g>
     </g>
     <g id="text_7">
      <!-- $\mathdefault{500}$ -->
      <g transform="translate(465.600641 298.318498) scale(0.1 -0.1)">
       <defs>
        <path id="CMR17-35" d="M 730 3692 
C 794 3666 1056 3584 1325 3584 
C 1920 3584 2246 3911 2432 4100 
C 2432 4157 2432 4192 2394 4192 
C 2387 4192 2374 4192 2323 4163 
C 2099 4058 1837 3973 1517 3973 
C 1325 3973 1037 3999 723 4139 
C 653 4171 640 4171 634 4171 
C 602 4171 595 4164 595 4037 
L 595 2203 
C 595 2089 595 2057 659 2057 
C 691 2057 704 2070 736 2114 
C 941 2401 1222 2522 1542 2522 
C 1766 2522 2246 2382 2246 1289 
C 2246 1085 2246 715 2054 421 
C 1894 159 1645 25 1370 25 
C 947 25 518 320 403 814 
C 429 807 480 795 506 795 
C 589 795 749 840 749 1038 
C 749 1210 627 1280 506 1280 
C 358 1280 262 1190 262 1011 
C 262 454 704 -128 1382 -128 
C 2042 -128 2669 440 2669 1264 
C 2669 2030 2170 2624 1549 2624 
C 1222 2624 947 2503 730 2274 
L 730 3692 
z
" transform="scale(0.015625)"/>
       </defs>
       <use xlink:href="#CMR17-35" transform="scale(0.996264)"/>
       <use xlink:href="#CMR17-30" transform="translate(45.690477 0) scale(0.996264)"/>
       <use xlink:href="#CMR17-30" transform="translate(91.380954 0) scale(0.996264)"/>
      </g>
     </g>
    </g>
    <g id="xtick_8">
     <g id="line2d_15">
      <path d="M 544.918137 284.4 
L 544.918137 7.2 
" clip-path="url(#p3f7feba8a0)" style="fill: none; stroke: #b0b0b0; stroke-width: 0.8; stroke-linecap: square"/>
     </g>
     <g id="line2d_16">
      <g>
       <use xlink:href="#mae6777df2f" x="544.918137" y="284.4" style="stroke: #000000; stroke-width: 0.8"/>
      </g>
     </g>
     <g id="text_8">
      <!-- $\mathdefault{600}$ -->
      <g transform="translate(537.446135 298.318498) scale(0.1 -0.1)">
       <defs>
        <path id="CMR17-36" d="M 678 2176 
C 678 3690 1395 4032 1811 4032 
C 1946 4032 2272 4009 2400 3776 
C 2298 3776 2106 3776 2106 3553 
C 2106 3381 2246 3323 2336 3323 
C 2394 3323 2566 3348 2566 3560 
C 2566 3954 2246 4179 1805 4179 
C 1043 4179 243 3390 243 1984 
C 243 253 966 -128 1478 -128 
C 2099 -128 2688 427 2688 1283 
C 2688 2081 2170 2662 1517 2662 
C 1126 2662 838 2407 678 1960 
L 678 2176 
z
M 1478 25 
C 691 25 691 1200 691 1436 
C 691 1896 909 2560 1504 2560 
C 1613 2560 1926 2560 2138 2120 
C 2253 1870 2253 1609 2253 1289 
C 2253 944 2253 690 2118 434 
C 1978 171 1773 25 1478 25 
z
" transform="scale(0.015625)"/>
       </defs>
       <use xlink:href="#CMR17-36" transform="scale(0.996264)"/>
       <use xlink:href="#CMR17-30" transform="translate(45.690477 0) scale(0.996264)"/>
       <use xlink:href="#CMR17-30" transform="translate(91.380954 0) scale(0.996264)"/>
      </g>
     </g>
    </g>
    <g id="xtick_9">
     <g id="line2d_17">
      <path d="M 616.763631 284.4 
L 616.763631 7.2 
" clip-path="url(#p3f7feba8a0)" style="fill: none; stroke: #b0b0b0; stroke-width: 0.8; stroke-linecap: square"/>
     </g>
     <g id="line2d_18">
      <g>
       <use xlink:href="#mae6777df2f" x="616.763631" y="284.4" style="stroke: #000000; stroke-width: 0.8"/>
      </g>
     </g>
     <g id="text_9">
      <!-- $\mathdefault{700}$ -->
      <g transform="translate(609.291628 298.318498) scale(0.1 -0.1)">
       <defs>
        <path id="CMR17-37" d="M 2886 3941 
L 2886 4081 
L 1382 4081 
C 634 4081 621 4165 595 4288 
L 480 4288 
L 294 3094 
L 410 3094 
C 429 3215 474 3540 550 3661 
C 589 3712 1062 3712 1171 3712 
L 2579 3712 
L 1869 2661 
C 1395 1954 1069 999 1069 165 
C 1069 89 1069 -128 1299 -128 
C 1530 -128 1530 89 1530 171 
L 1530 465 
C 1530 1508 1709 2196 2003 2636 
L 2886 3941 
z
" transform="scale(0.015625)"/>
       </defs>
       <use xlink:href="#CMR17-37" transform="scale(0.996264)"/>
       <use xlink:href="#CMR17-30" transform="translate(45.690477 0) scale(0.996264)"/>
       <use xlink:href="#CMR17-30" transform="translate(91.380954 0) scale(0.996264)"/>
      </g>
     </g>
    </g>
    <g id="text_10">
     <!-- Days since Release -->
     <g transform="translate(337.966106 311.174175) scale(0.1 -0.1)">
      <defs>
       <path id="CMSS17-44" d="M 570 4416 
L 570 0 
L 2144 0 
C 3194 0 4000 980 4000 2170 
C 4000 3398 3194 4416 2144 4416 
L 570 4416 
z
M 1094 357 
L 1094 4059 
L 2003 4059 
C 2861 4059 3475 3277 3475 2170 
C 3475 1107 2867 357 2003 357 
L 1094 357 
z
" transform="scale(0.015625)"/>
       <path id="CMSS17-61" d="M 2406 1791 
C 2406 2392 1978 2808 1402 2808 
C 1120 2808 813 2757 461 2553 
L 499 2135 
C 659 2248 934 2432 1395 2432 
C 1722 2432 1920 2180 1920 1782 
L 1920 1536 
C 896 1536 256 1238 256 726 
C 256 461 416 -64 947 -64 
C 1043 -64 1562 -64 1933 217 
L 1933 -19 
L 2406 -19 
L 2406 1791 
z
M 1920 816 
C 1920 701 1920 548 1728 434 
C 1562 325 1350 325 1261 325 
C 941 325 723 511 723 744 
C 723 1211 1722 1211 1920 1211 
L 1920 816 
z
" transform="scale(0.015625)"/>
       <path id="CMSS17-79" d="M 2675 2752 
L 2176 2752 
C 1632 1294 1446 702 1434 383 
L 1427 383 
C 1408 696 1126 1460 902 2007 
L 602 2752 
L 83 2752 
L 1216 13 
C 1146 -178 1043 -465 1011 -529 
C 870 -885 774 -885 672 -885 
C 646 -885 442 -885 211 -809 
L 250 -1229 
C 410 -1261 570 -1280 685 -1280 
C 845 -1280 1165 -1280 1459 -497 
L 2675 2752 
z
" transform="scale(0.015625)"/>
       <path id="CMSS17-73" d="M 2061 2627 
C 1683 2807 1389 2807 1197 2807 
C 742 2807 198 2648 198 2003 
C 198 1359 902 1218 1094 1179 
C 1389 1122 1715 1058 1715 740 
C 1715 337 1254 337 1171 337 
C 915 337 563 407 243 638 
L 166 210 
C 531 0 883 -64 1178 -64 
C 1965 -64 2163 416 2163 781 
C 2163 1094 1984 1305 1862 1401 
C 1651 1568 1574 1587 1050 1696 
C 960 1709 646 1779 646 2066 
C 646 2432 1050 2432 1139 2432 
C 1555 2432 1811 2303 1984 2208 
L 2061 2627 
z
" transform="scale(0.015625)"/>
       <path id="CMSS17-69" d="M 979 4183 
L 442 4183 
L 442 3648 
L 979 3648 
L 979 4183 
z
M 947 2739 
L 474 2739 
L 474 0 
L 947 0 
L 947 2739 
z
" transform="scale(0.015625)"/>
       <path id="CMSS17-6e" d="M 2618 1877 
C 2618 2283 2522 2816 1798 2816 
C 1389 2816 1120 2606 941 2389 
L 941 2758 
L 474 2758 
L 474 0 
L 960 0 
L 960 1559 
C 960 1964 1114 2428 1549 2428 
C 2112 2428 2131 2048 2131 1829 
L 2131 0 
L 2618 0 
L 2618 1877 
z
" transform="scale(0.015625)"/>
       <path id="CMSS17-63" d="M 2464 2541 
C 2464 2585 2170 2714 2093 2739 
C 1882 2816 1613 2816 1542 2816 
C 710 2816 211 2093 211 1363 
C 211 595 768 -64 1517 -64 
C 1946 -64 2253 76 2502 242 
L 2464 664 
C 2189 453 1869 337 1523 337 
C 1024 337 698 774 698 1369 
C 698 1831 909 2414 1549 2414 
C 1901 2414 2099 2343 2394 2145 
L 2464 2541 
z
" transform="scale(0.015625)"/>
       <path id="CMSS17-65" d="M 2502 1377 
C 2502 1590 2490 2003 2285 2345 
C 2061 2713 1696 2816 1421 2816 
C 755 2816 192 2188 192 1375 
C 192 582 774 -64 1510 -64 
C 1798 -64 2150 19 2470 248 
C 2470 274 2458 414 2451 420 
C 2451 433 2432 630 2432 656 
C 2125 407 1773 325 1517 325 
C 1107 325 666 667 646 1377 
L 2502 1377 
z
M 698 1728 
C 781 2084 1062 2421 1421 2421 
C 1517 2421 1965 2421 2080 1728 
L 698 1728 
z
" transform="scale(0.015625)"/>
       <path id="CMSS17-52" d="M 2522 2109 
L 2534 2115 
C 3533 2459 3539 3147 3539 3268 
C 3539 3873 2925 4453 2003 4453 
L 570 4453 
L 570 32 
L 1094 32 
L 1094 2048 
L 2035 2048 
L 3168 32 
L 3706 32 
L 2522 2109 
z
M 1094 2437 
L 1094 4096 
L 1933 4096 
C 2746 4096 3034 3637 3034 3267 
C 3034 2922 2778 2437 1933 2437 
L 1094 2437 
z
" transform="scale(0.015625)"/>
       <path id="CMSS17-6c" d="M 947 4416 
L 474 4416 
L 474 0 
L 947 0 
L 947 4416 
z
" transform="scale(0.015625)"/>
      </defs>
      <use xlink:href="#CMSS17-44" transform="scale(0.996264)"/>
      <use xlink:href="#CMSS17-61" transform="translate(67.542842 0) scale(0.996264)"/>
      <use xlink:href="#CMSS17-79" transform="translate(109.862308 0) scale(0.996264)"/>
      <use xlink:href="#CMSS17-73" transform="translate(152.86245 0) scale(0.996264)"/>
      <use xlink:href="#CMSS17-73" transform="translate(220.005105 0) scale(0.996264)"/>
      <use xlink:href="#CMSS17-69" transform="translate(255.918647 0) scale(0.996264)"/>
      <use xlink:href="#CMSS17-6e" transform="translate(278.09937 0) scale(0.996264)"/>
      <use xlink:href="#CMSS17-63" transform="translate(326.304313 0) scale(0.996264)"/>
      <use xlink:href="#CMSS17-65" transform="translate(367.943135 0) scale(0.996264)"/>
      <use xlink:href="#CMSS17-52" transform="translate(440.81107 0) scale(0.996264)"/>
      <use xlink:href="#CMSS17-65" transform="translate(501.227225 0) scale(0.996264)"/>
      <use xlink:href="#CMSS17-6c" transform="translate(542.866047 0) scale(0.996264)"/>
      <use xlink:href="#CMSS17-65" transform="translate(565.04677 0) scale(0.996264)"/>
      <use xlink:href="#CMSS17-61" transform="translate(606.685592 0) scale(0.996264)"/>
      <use xlink:href="#CMSS17-73" transform="translate(651.607512 0) scale(0.996264)"/>
      <use xlink:href="#CMSS17-65" transform="translate(687.521054 0) scale(0.996264)"/>
     </g>
    </g>
   </g>
   <g id="matplotlib.axis_2">
    <g id="ytick_1">
     <g id="line2d_19">
      <path d="M 41.999682 273.169565 
L 711.599682 273.169565 
" clip-path="url(#p3f7feba8a0)" style="fill: none; stroke: #b0b0b0; stroke-width: 0.8; stroke-linecap: square"/>
     </g>
     <g id="line2d_20">
      <defs>
       <path id="m01b1280439" d="M 0 0 
L -3.5 0 
" style="stroke: #000000; stroke-width: 0.8"/>
      </defs>
      <g>
       <use xlink:href="#m01b1280439" x="41.999682" y="273.169565" style="stroke: #000000; stroke-width: 0.8"/>
      </g>
     </g>
     <g id="text_11">
      <!-- $\mathdefault{0}$ -->
      <g transform="translate(30.018347 276.628814) scale(0.1 -0.1)">
       <use xlink:href="#CMR17-30" transform="scale(0.996264)"/>
      </g>
     </g>
    </g>
    <g id="ytick_2">
     <g id="line2d_21">
      <path d="M 41.999682 238.930435 
L 711.599682 238.930435 
" clip-path="url(#p3f7feba8a0)" style="fill: none; stroke: #b0b0b0; stroke-width: 0.8; stroke-linecap: square"/>
     </g>
     <g id="line2d_22">
      <g>
       <use xlink:href="#m01b1280439" x="41.999682" y="238.930435" style="stroke: #000000; stroke-width: 0.8"/>
      </g>
     </g>
     <g id="text_12">
      <!-- $\mathdefault{25}$ -->
      <g transform="translate(25.037012 242.389684) scale(0.1 -0.1)">
       <use xlink:href="#CMR17-32" transform="scale(0.996264)"/>
       <use xlink:href="#CMR17-35" transform="translate(45.690477 0) scale(0.996264)"/>
      </g>
     </g>
    </g>
    <g id="ytick_3">
     <g id="line2d_23">
      <path d="M 41.999682 204.691304 
L 711.599682 204.691304 
" clip-path="url(#p3f7feba8a0)" style="fill: none; stroke: #b0b0b0; stroke-width: 0.8; stroke-linecap: square"/>
     </g>
     <g id="line2d_24">
      <g>
       <use xlink:href="#m01b1280439" x="41.999682" y="204.691304" style="stroke: #000000; stroke-width: 0.8"/>
      </g>
     </g>
     <g id="text_13">
      <!-- $\mathdefault{50}$ -->
      <g transform="translate(25.037012 208.150554) scale(0.1 -0.1)">
       <use xlink:href="#CMR17-35" transform="scale(0.996264)"/>
       <use xlink:href="#CMR17-30" transform="translate(45.690477 0) scale(0.996264)"/>
      </g>
     </g>
    </g>
    <g id="ytick_4">
     <g id="line2d_25">
      <path d="M 41.999682 170.452174 
L 711.599682 170.452174 
" clip-path="url(#p3f7feba8a0)" style="fill: none; stroke: #b0b0b0; stroke-width: 0.8; stroke-linecap: square"/>
     </g>
     <g id="line2d_26">
      <g>
       <use xlink:href="#m01b1280439" x="41.999682" y="170.452174" style="stroke: #000000; stroke-width: 0.8"/>
      </g>
     </g>
     <g id="text_14">
      <!-- $\mathdefault{75}$ -->
      <g transform="translate(25.037012 173.911423) scale(0.1 -0.1)">
       <use xlink:href="#CMR17-37" transform="scale(0.996264)"/>
       <use xlink:href="#CMR17-35" transform="translate(45.690477 0) scale(0.996264)"/>
      </g>
     </g>
    </g>
    <g id="ytick_5">
     <g id="line2d_27">
      <path d="M 41.999682 136.213043 
L 711.599682 136.213043 
" clip-path="url(#p3f7feba8a0)" style="fill: none; stroke: #b0b0b0; stroke-width: 0.8; stroke-linecap: square"/>
     </g>
     <g id="line2d_28">
      <g>
       <use xlink:href="#m01b1280439" x="41.999682" y="136.213043" style="stroke: #000000; stroke-width: 0.8"/>
      </g>
     </g>
     <g id="text_15">
      <!-- $\mathdefault{100}$ -->
      <g transform="translate(20.055677 139.672293) scale(0.1 -0.1)">
       <use xlink:href="#CMR17-31" transform="scale(0.996264)"/>
       <use xlink:href="#CMR17-30" transform="translate(45.690477 0) scale(0.996264)"/>
       <use xlink:href="#CMR17-30" transform="translate(91.380954 0) scale(0.996264)"/>
      </g>
     </g>
    </g>
    <g id="ytick_6">
     <g id="line2d_29">
      <path d="M 41.999682 101.973913 
L 711.599682 101.973913 
" clip-path="url(#p3f7feba8a0)" style="fill: none; stroke: #b0b0b0; stroke-width: 0.8; stroke-linecap: square"/>
     </g>
     <g id="line2d_30">
      <g>
       <use xlink:href="#m01b1280439" x="41.999682" y="101.973913" style="stroke: #000000; stroke-width: 0.8"/>
      </g>
     </g>
     <g id="text_16">
      <!-- $\mathdefault{125}$ -->
      <g transform="translate(20.055677 105.433162) scale(0.1 -0.1)">
       <use xlink:href="#CMR17-31" transform="scale(0.996264)"/>
       <use xlink:href="#CMR17-32" transform="translate(45.690477 0) scale(0.996264)"/>
       <use xlink:href="#CMR17-35" transform="translate(91.380954 0) scale(0.996264)"/>
      </g>
     </g>
    </g>
    <g id="ytick_7">
     <g id="line2d_31">
      <path d="M 41.999682 67.734783 
L 711.599682 67.734783 
" clip-path="url(#p3f7feba8a0)" style="fill: none; stroke: #b0b0b0; stroke-width: 0.8; stroke-linecap: square"/>
     </g>
     <g id="line2d_32">
      <g>
       <use xlink:href="#m01b1280439" x="41.999682" y="67.734783" style="stroke: #000000; stroke-width: 0.8"/>
      </g>
     </g>
     <g id="text_17">
      <!-- $\mathdefault{150}$ -->
      <g transform="translate(20.055677 71.194032) scale(0.1 -0.1)">
       <use xlink:href="#CMR17-31" transform="scale(0.996264)"/>
       <use xlink:href="#CMR17-35" transform="translate(45.690477 0) scale(0.996264)"/>
       <use xlink:href="#CMR17-30" transform="translate(91.380954 0) scale(0.996264)"/>
      </g>
     </g>
    </g>
    <g id="ytick_8">
     <g id="line2d_33">
      <path d="M 41.999682 33.495652 
L 711.599682 33.495652 
" clip-path="url(#p3f7feba8a0)" style="fill: none; stroke: #b0b0b0; stroke-width: 0.8; stroke-linecap: square"/>
     </g>
     <g id="line2d_34">
      <g>
       <use xlink:href="#m01b1280439" x="41.999682" y="33.495652" style="stroke: #000000; stroke-width: 0.8"/>
      </g>
     </g>
     <g id="text_18">
      <!-- $\mathdefault{175}$ -->
      <g transform="translate(20.055677 36.954901) scale(0.1 -0.1)">
       <use xlink:href="#CMR17-31" transform="scale(0.996264)"/>
       <use xlink:href="#CMR17-37" transform="translate(45.690477 0) scale(0.996264)"/>
       <use xlink:href="#CMR17-35" transform="translate(91.380954 0) scale(0.996264)"/>
      </g>
     </g>
    </g>
    <g id="text_19">
     <!-- Repositories adopting version -->
     <g transform="translate(14.118498 206.482247) rotate(-90) scale(0.1 -0.1)">
      <defs>
       <path id="CMSS17-70" d="M 966 333 
C 1178 129 1466 -5 1773 -5 
C 2368 -5 2880 603 2880 1412 
C 2880 2159 2496 2816 1946 2816 
C 1626 2816 1242 2702 954 2472 
L 954 2765 
L 480 2765 
L 480 -1216 
L 966 -1216 
L 966 333 
z
M 966 2100 
C 1018 2176 1235 2415 1587 2415 
C 2035 2415 2394 1960 2394 1412 
C 2394 787 1958 384 1530 384 
C 1402 384 1267 415 1139 523 
C 966 674 966 768 966 857 
L 966 2100 
z
" transform="scale(0.015625)"/>
       <path id="CMSS17-6f" d="M 2829 1356 
C 2829 2176 2221 2816 1504 2816 
C 768 2816 173 2157 173 1356 
C 173 544 787 -64 1498 -64 
C 2227 -64 2829 563 2829 1356 
z
M 1504 337 
C 1050 337 659 709 659 1408 
C 659 2151 1114 2427 1498 2427 
C 1914 2427 2342 2126 2342 1408 
C 2342 683 1926 337 1504 337 
z
" transform="scale(0.015625)"/>
       <path id="CMSS17-74" d="M 1069 2368 
L 1901 2368 
L 1901 2737 
L 1069 2737 
L 1069 3520 
L 614 3520 
L 614 2737 
L 109 2737 
L 109 2368 
L 602 2368 
L 602 749 
C 602 384 685 -64 1107 -64 
C 1427 -64 1722 25 2003 172 
L 1901 548 
C 1747 414 1562 337 1363 337 
C 1082 337 1069 696 1069 856 
L 1069 2368 
z
" transform="scale(0.015625)"/>
       <path id="CMSS17-72" d="M 954 1363 
C 954 1965 1395 2368 1958 2368 
L 1958 2789 
C 1549 2789 1165 2585 934 2253 
L 934 2758 
L 480 2758 
L 480 0 
L 954 0 
L 954 1363 
z
" transform="scale(0.015625)"/>
       <path id="CMSS17-64" d="M 2611 4416 
L 2138 4416 
L 2138 2438 
C 1939 2603 1613 2756 1254 2756 
C 672 2756 211 2131 211 1347 
C 211 562 666 -64 1235 -64 
C 1677 -64 1971 172 2125 306 
L 2125 -13 
L 2611 -13 
L 2611 4416 
z
M 2125 836 
C 2125 747 2125 653 1926 482 
C 1798 375 1645 325 1498 325 
C 1152 325 698 576 698 1340 
C 698 2134 1210 2368 1562 2368 
C 1798 2368 1990 2254 2125 2065 
L 2125 836 
z
" transform="scale(0.015625)"/>
       <path id="CMSS17-67" d="M 2848 2808 
C 2483 2808 2170 2738 1914 2617 
C 1702 2777 1485 2808 1338 2808 
C 781 2808 358 2349 358 1814 
C 358 1468 550 1207 563 1195 
C 448 1035 384 863 384 672 
C 384 448 474 289 544 200 
C 211 -3 166 -314 166 -435 
C 166 -898 749 -1280 1498 -1280 
C 2253 -1280 2835 -898 2835 -428 
C 2835 448 1856 448 1587 448 
L 1069 448 
C 973 448 717 448 717 791 
C 717 921 774 1004 781 1010 
C 877 940 1075 832 1338 832 
C 1869 832 2310 1278 2310 1827 
C 2310 2132 2170 2355 2112 2432 
L 2131 2432 
C 2150 2432 2419 2432 2515 2432 
C 2720 2432 2739 2429 2918 2419 
L 2848 2808 
z
M 1338 1182 
C 1120 1182 813 1315 813 1823 
C 813 2375 1165 2464 1331 2464 
C 1549 2464 1856 2331 1856 1823 
C 1856 1271 1504 1182 1338 1182 
z
M 1581 -10 
C 1734 -10 2381 -10 2381 -442 
C 2381 -714 1984 -929 1504 -929 
C 1018 -929 621 -720 621 -435 
C 621 -403 621 -10 1062 -10 
L 1581 -10 
z
" transform="scale(0.015625)"/>
       <path id="CMSS17-76" d="M 2675 2752 
L 2176 2752 
L 1747 1556 
C 1613 1165 1421 627 1389 352 
L 1382 352 
C 1370 468 1318 634 1286 749 
C 1248 890 1197 1056 1158 1172 
L 595 2752 
L 83 2752 
L 1094 0 
L 1664 0 
L 2675 2752 
z
" transform="scale(0.015625)"/>
      </defs>
      <use xlink:href="#CMSS17-52" transform="scale(0.996264)"/>
      <use xlink:href="#CMSS17-65" transform="translate(60.416155 0) scale(0.996264)"/>
      <use xlink:href="#CMSS17-70" transform="translate(102.054977 0) scale(0.996264)"/>
      <use xlink:href="#CMSS17-6f" transform="translate(152.862359 0) scale(0.996264)"/>
      <use xlink:href="#CMSS17-73" transform="translate(199.705982 0) scale(0.996264)"/>
      <use xlink:href="#CMSS17-69" transform="translate(235.619524 0) scale(0.996264)"/>
      <use xlink:href="#CMSS17-74" transform="translate(257.800247 0) scale(0.996264)"/>
      <use xlink:href="#CMSS17-6f" transform="translate(291.631814 0) scale(0.996264)"/>
      <use xlink:href="#CMSS17-72" transform="translate(335.872984 0) scale(0.996264)"/>
      <use xlink:href="#CMSS17-69" transform="translate(367.782756 0) scale(0.996264)"/>
      <use xlink:href="#CMSS17-65" transform="translate(389.963479 0) scale(0.996264)"/>
      <use xlink:href="#CMSS17-73" transform="translate(431.602301 0) scale(0.996264)"/>
      <use xlink:href="#CMSS17-61" transform="translate(498.744956 0) scale(0.996264)"/>
      <use xlink:href="#CMSS17-64" transform="translate(543.666877 0) scale(0.996264)"/>
      <use xlink:href="#CMSS17-6f" transform="translate(591.87182 0) scale(0.996264)"/>
      <use xlink:href="#CMSS17-70" transform="translate(638.715443 0) scale(0.996264)"/>
      <use xlink:href="#CMSS17-74" transform="translate(686.920386 0) scale(0.996264)"/>
      <use xlink:href="#CMSS17-69" transform="translate(720.751953 0) scale(0.996264)"/>
      <use xlink:href="#CMSS17-6e" transform="translate(742.932676 0) scale(0.996264)"/>
      <use xlink:href="#CMSS17-67" transform="translate(791.137619 0) scale(0.996264)"/>
      <use xlink:href="#CMSS17-76" transform="translate(869.210356 0) scale(0.996264)"/>
      <use xlink:href="#CMSS17-65" transform="translate(912.210497 0) scale(0.996264)"/>
      <use xlink:href="#CMSS17-72" transform="translate(953.849319 0) scale(0.996264)"/>
      <use xlink:href="#CMSS17-73" transform="translate(985.759092 0) scale(0.996264)"/>
      <use xlink:href="#CMSS17-69" transform="translate(1021.672634 0) scale(0.996264)"/>
      <use xlink:href="#CMSS17-6f" transform="translate(1043.853357 0) scale(0.996264)"/>
      <use xlink:href="#CMSS17-6e" transform="translate(1090.69698 0) scale(0.996264)"/>
     </g>
    </g>
   </g>
   <g id="line2d_35">
    <path d="M 77.922429 271.8 
L 85.106979 270.430435 
L 92.291528 270.430435 
L 99.476077 270.430435 
L 106.660627 270.430435 
L 113.845176 269.06087 
L 121.029725 200.582609 
L 128.214275 188.256522 
L 135.398824 159.495652 
L 142.583373 141.691304 
L 149.767923 134.843478 
L 156.952472 134.843478 
L 164.137022 134.843478 
L 171.321571 134.843478 
L 178.50612 134.843478 
L 185.69067 134.843478 
L 192.875219 134.843478 
L 200.059768 134.843478 
L 207.244318 134.843478 
L 214.428867 134.843478 
L 221.613416 134.843478 
L 228.797966 134.843478 
L 235.982515 134.843478 
L 243.167064 134.843478 
L 250.351614 134.843478 
L 257.536163 134.843478 
L 264.720713 134.843478 
L 271.905262 134.843478 
L 279.089811 134.843478 
L 286.274361 134.843478 
L 293.45891 134.843478 
L 300.643459 134.843478 
L 307.828009 134.843478 
L 315.012558 134.843478 
L 322.197107 134.843478 
L 329.381657 134.843478 
L 336.566206 134.843478 
L 343.750755 134.843478 
L 350.935305 134.843478 
L 358.119854 134.843478 
L 365.304403 134.843478 
L 372.488953 134.843478 
L 379.673502 134.843478 
L 386.858052 134.843478 
L 394.042601 134.843478 
L 401.22715 134.843478 
L 408.4117 134.843478 
L 415.596249 134.843478 
L 422.780798 134.843478 
L 429.965348 134.843478 
L 437.149897 134.843478 
L 444.334446 134.843478 
L 451.518996 134.843478 
L 458.703545 134.843478 
L 465.888094 134.843478 
L 473.072644 134.843478 
L 480.257193 134.843478 
L 487.441743 134.843478 
L 494.626292 134.843478 
L 501.810841 134.843478 
L 508.995391 134.843478 
L 516.17994 134.843478 
L 523.364489 134.843478 
L 530.549039 134.843478 
L 537.733588 134.843478 
L 544.918137 134.843478 
L 552.102687 134.843478 
L 559.287236 134.843478 
L 566.471785 134.843478 
L 573.656335 134.843478 
L 580.840884 134.843478 
L 588.025434 134.843478 
L 595.209983 134.843478 
L 602.394532 134.843478 
L 609.579082 134.843478 
L 616.763631 134.843478 
L 623.94818 134.843478 
L 631.13273 134.843478 
L 638.317279 134.843478 
L 645.501828 134.843478 
L 652.686378 134.843478 
L 659.870927 134.843478 
L 667.055476 134.843478 
L 674.240026 134.843478 
L 681.424575 134.843478 
" clip-path="url(#p3f7feba8a0)" style="fill: none; stroke: #1f77b4; stroke-width: 1.5; stroke-linecap: square"/>
   </g>
   <g id="line2d_36">
    <path d="M 77.922429 271.8 
L 85.106979 269.06087 
L 92.291528 267.691304 
L 99.476077 266.321739 
L 106.660627 262.213043 
L 113.845176 262.213043 
L 121.029725 201.952174 
L 128.214275 178.669565 
L 135.398824 158.126087 
L 142.583373 140.321739 
L 149.767923 121.147826 
L 156.952472 103.343478 
L 164.137022 85.53913 
L 171.321571 70.473913 
L 178.50612 63.626087 
L 185.69067 55.408696 
L 192.875219 49.930435 
L 200.059768 49.930435 
L 207.244318 48.56087 
L 214.428867 48.56087 
L 221.613416 44.452174 
L 228.797966 43.082609 
L 235.982515 41.713043 
L 243.167064 38.973913 
L 250.351614 37.604348 
L 257.536163 36.234783 
L 264.720713 34.865217 
L 271.905262 33.495652 
L 279.089811 33.495652 
L 286.274361 33.495652 
L 293.45891 33.495652 
L 300.643459 33.495652 
L 307.828009 33.495652 
L 315.012558 33.495652 
L 322.197107 33.495652 
L 329.381657 33.495652 
L 336.566206 33.495652 
L 343.750755 33.495652 
L 350.935305 33.495652 
L 358.119854 33.495652 
L 365.304403 33.495652 
L 372.488953 33.495652 
L 379.673502 33.495652 
L 386.858052 33.495652 
L 394.042601 33.495652 
L 401.22715 33.495652 
L 408.4117 33.495652 
L 415.596249 33.495652 
L 422.780798 33.495652 
L 429.965348 33.495652 
L 437.149897 33.495652 
L 444.334446 33.495652 
L 451.518996 33.495652 
L 458.703545 33.495652 
L 465.888094 33.495652 
L 473.072644 33.495652 
L 480.257193 33.495652 
L 487.441743 33.495652 
L 494.626292 33.495652 
L 501.810841 33.495652 
L 508.995391 33.495652 
L 516.17994 33.495652 
L 523.364489 33.495652 
L 530.549039 33.495652 
L 537.733588 33.495652 
L 544.918137 33.495652 
L 552.102687 33.495652 
L 559.287236 33.495652 
L 566.471785 33.495652 
L 573.656335 33.495652 
L 580.840884 33.495652 
L 588.025434 33.495652 
L 595.209983 33.495652 
L 602.394532 33.495652 
L 609.579082 33.495652 
L 616.763631 33.495652 
L 623.94818 33.495652 
L 631.13273 33.495652 
L 638.317279 33.495652 
L 645.501828 33.495652 
L 652.686378 33.495652 
L 659.870927 33.495652 
L 667.055476 33.495652 
L 674.240026 33.495652 
L 681.424575 33.495652 
" clip-path="url(#p3f7feba8a0)" style="fill: none; stroke: #ff7f0e; stroke-width: 1.5; stroke-linecap: square"/>
   </g>
   <g id="line2d_37">
    <path d="M 77.922429 270.430435 
L 85.106979 270.430435 
L 92.291528 269.06087 
L 99.476077 267.691304 
L 106.660627 264.952174 
L 113.845176 264.952174 
L 121.029725 189.626087 
L 128.214275 167.713043 
L 135.398824 138.952174 
L 142.583373 126.626087 
L 149.767923 111.56087 
L 156.952472 101.973913 
L 164.137022 86.908696 
L 171.321571 69.104348 
L 178.50612 60.886957 
L 185.69067 49.930435 
L 192.875219 47.191304 
L 200.059768 44.452174 
L 207.244318 43.082609 
L 214.428867 43.082609 
L 221.613416 43.082609 
L 228.797966 43.082609 
L 235.982515 43.082609 
L 243.167064 40.343478 
L 250.351614 40.343478 
L 257.536163 40.343478 
L 264.720713 38.973913 
L 271.905262 38.973913 
L 279.089811 38.973913 
L 286.274361 38.973913 
L 293.45891 38.973913 
L 300.643459 38.973913 
L 307.828009 38.973913 
L 315.012558 38.973913 
L 322.197107 37.604348 
L 329.381657 37.604348 
L 336.566206 37.604348 
L 343.750755 37.604348 
L 350.935305 37.604348 
L 358.119854 37.604348 
L 365.304403 37.604348 
L 372.488953 37.604348 
L 379.673502 34.865217 
L 386.858052 34.865217 
L 394.042601 34.865217 
L 401.22715 33.495652 
L 408.4117 33.495652 
L 415.596249 33.495652 
L 422.780798 33.495652 
L 429.965348 33.495652 
L 437.149897 33.495652 
L 444.334446 33.495652 
L 451.518996 33.495652 
L 458.703545 33.495652 
L 465.888094 33.495652 
L 473.072644 33.495652 
L 480.257193 33.495652 
L 487.441743 33.495652 
L 494.626292 33.495652 
L 501.810841 33.495652 
L 508.995391 33.495652 
L 516.17994 33.495652 
L 523.364489 33.495652 
L 530.549039 33.495652 
L 537.733588 33.495652 
L 544.918137 33.495652 
L 552.102687 33.495652 
L 559.287236 33.495652 
L 566.471785 33.495652 
L 573.656335 33.495652 
L 580.840884 33.495652 
L 588.025434 33.495652 
L 595.209983 33.495652 
L 602.394532 33.495652 
L 609.579082 33.495652 
L 616.763631 33.495652 
L 623.94818 33.495652 
L 631.13273 33.495652 
L 638.317279 33.495652 
L 645.501828 33.495652 
L 652.686378 33.495652 
L 659.870927 33.495652 
L 667.055476 33.495652 
L 674.240026 33.495652 
L 681.424575 33.495652 
" clip-path="url(#p3f7feba8a0)" style="fill: none; stroke: #2ca02c; stroke-width: 1.5; stroke-linecap: square"/>
   </g>
   <g id="line2d_38">
    <path d="M 77.922429 267.691304 
L 85.106979 267.691304 
L 92.291528 267.691304 
L 99.476077 267.691304 
L 106.660627 267.691304 
L 113.845176 267.691304 
L 121.029725 199.213043 
L 128.214275 184.147826 
L 135.398824 155.386957 
L 142.583373 129.365217 
L 149.767923 106.082609 
L 156.952472 92.386957 
L 164.137022 75.952174 
L 171.321571 56.778261 
L 178.50612 52.669565 
L 185.69067 45.821739 
L 192.875219 43.082609 
L 200.059768 43.082609 
L 207.244318 43.082609 
L 214.428867 41.713043 
L 221.613416 41.713043 
L 228.797966 41.713043 
L 235.982515 40.343478 
L 243.167064 40.343478 
L 250.351614 40.343478 
L 257.536163 40.343478 
L 264.720713 38.973913 
L 271.905262 38.973913 
L 279.089811 38.973913 
L 286.274361 38.973913 
L 293.45891 38.973913 
L 300.643459 38.973913 
L 307.828009 38.973913 
L 315.012558 38.973913 
L 322.197107 38.973913 
L 329.381657 38.973913 
L 336.566206 38.973913 
L 343.750755 36.234783 
L 350.935305 36.234783 
L 358.119854 36.234783 
L 365.304403 36.234783 
L 372.488953 36.234783 
L 379.673502 36.234783 
L 386.858052 34.865217 
L 394.042601 34.865217 
L 401.22715 34.865217 
L 408.4117 34.865217 
L 415.596249 34.865217 
L 422.780798 34.865217 
L 429.965348 33.495652 
L 437.149897 33.495652 
L 444.334446 33.495652 
L 451.518996 33.495652 
L 458.703545 33.495652 
L 465.888094 33.495652 
L 473.072644 33.495652 
L 480.257193 33.495652 
L 487.441743 33.495652 
L 494.626292 33.495652 
L 501.810841 33.495652 
L 508.995391 33.495652 
L 516.17994 33.495652 
L 523.364489 33.495652 
L 530.549039 33.495652 
L 537.733588 33.495652 
L 544.918137 33.495652 
L 552.102687 33.495652 
L 559.287236 33.495652 
L 566.471785 33.495652 
L 573.656335 33.495652 
L 580.840884 33.495652 
L 588.025434 33.495652 
L 595.209983 33.495652 
L 602.394532 33.495652 
L 609.579082 33.495652 
L 616.763631 33.495652 
L 623.94818 33.495652 
L 631.13273 33.495652 
L 638.317279 33.495652 
L 645.501828 33.495652 
L 652.686378 33.495652 
L 659.870927 33.495652 
L 667.055476 33.495652 
L 674.240026 33.495652 
L 681.424575 33.495652 
" clip-path="url(#p3f7feba8a0)" style="fill: none; stroke: #9467bd; stroke-width: 1.5; stroke-linecap: square"/>
   </g>
   <g id="line2d_39">
    <path d="M 77.922429 266.321739 
L 85.106979 266.321739 
L 92.291528 266.321739 
L 99.476077 266.321739 
L 106.660627 264.952174 
L 113.845176 263.582609 
L 121.029725 192.365217 
L 128.214275 164.973913 
L 135.398824 143.06087 
L 142.583373 121.147826 
L 149.767923 100.604348 
L 156.952472 85.53913 
L 164.137022 81.430435 
L 171.321571 70.473913 
L 178.50612 58.147826 
L 185.69067 54.03913 
L 192.875219 51.3 
L 200.059768 48.56087 
L 207.244318 44.452174 
L 214.428867 43.082609 
L 221.613416 43.082609 
L 228.797966 41.713043 
L 235.982515 41.713043 
L 243.167064 41.713043 
L 250.351614 41.713043 
L 257.536163 38.973913 
L 264.720713 36.234783 
L 271.905262 34.865217 
L 279.089811 34.865217 
L 286.274361 34.865217 
L 293.45891 33.495652 
L 300.643459 33.495652 
L 307.828009 33.495652 
L 315.012558 33.495652 
L 322.197107 33.495652 
L 329.381657 32.126087 
L 336.566206 32.126087 
L 343.750755 32.126087 
L 350.935305 32.126087 
L 358.119854 32.126087 
L 365.304403 30.756522 
L 372.488953 28.017391 
L 379.673502 28.017391 
L 386.858052 28.017391 
L 394.042601 28.017391 
L 401.22715 28.017391 
L 408.4117 28.017391 
L 415.596249 28.017391 
L 422.780798 28.017391 
L 429.965348 26.647826 
L 437.149897 26.647826 
L 444.334446 26.647826 
L 451.518996 26.647826 
L 458.703545 26.647826 
L 465.888094 26.647826 
L 473.072644 26.647826 
L 480.257193 26.647826 
L 487.441743 26.647826 
L 494.626292 26.647826 
L 501.810841 26.647826 
L 508.995391 26.647826 
L 516.17994 26.647826 
L 523.364489 26.647826 
L 530.549039 26.647826 
L 537.733588 26.647826 
L 544.918137 26.647826 
L 552.102687 26.647826 
L 559.287236 26.647826 
L 566.471785 26.647826 
L 573.656335 26.647826 
L 580.840884 26.647826 
L 588.025434 26.647826 
L 595.209983 26.647826 
L 602.394532 26.647826 
L 609.579082 26.647826 
L 616.763631 26.647826 
L 623.94818 26.647826 
L 631.13273 26.647826 
L 638.317279 26.647826 
L 645.501828 26.647826 
L 652.686378 26.647826 
L 659.870927 26.647826 
L 667.055476 26.647826 
L 674.240026 26.647826 
L 681.424575 26.647826 
" clip-path="url(#p3f7feba8a0)" style="fill: none; stroke: #8c564b; stroke-width: 1.5; stroke-linecap: square"/>
   </g>
   <g id="line2d_40">
    <path d="M 77.922429 270.430435 
L 85.106979 269.06087 
L 92.291528 267.691304 
L 99.476077 267.691304 
L 106.660627 266.321739 
L 113.845176 264.952174 
L 121.029725 208.8 
L 128.214275 178.669565 
L 135.398824 154.017391 
L 142.583373 132.104348 
L 149.767923 119.778261 
L 156.952472 112.930435 
L 164.137022 95.126087 
L 171.321571 80.06087 
L 178.50612 64.995652 
L 185.69067 56.778261 
L 192.875219 49.930435 
L 200.059768 47.191304 
L 207.244318 41.713043 
L 214.428867 41.713043 
L 221.613416 41.713043 
L 228.797966 41.713043 
L 235.982515 41.713043 
L 243.167064 40.343478 
L 250.351614 40.343478 
L 257.536163 40.343478 
L 264.720713 37.604348 
L 271.905262 37.604348 
L 279.089811 37.604348 
L 286.274361 37.604348 
L 293.45891 36.234783 
L 300.643459 36.234783 
L 307.828009 36.234783 
L 315.012558 36.234783 
L 322.197107 36.234783 
L 329.381657 36.234783 
L 336.566206 34.865217 
L 343.750755 34.865217 
L 350.935305 34.865217 
L 358.119854 34.865217 
L 365.304403 34.865217 
L 372.488953 34.865217 
L 379.673502 33.495652 
L 386.858052 33.495652 
L 394.042601 32.126087 
L 401.22715 32.126087 
L 408.4117 32.126087 
L 415.596249 32.126087 
L 422.780798 32.126087 
L 429.965348 32.126087 
L 437.149897 32.126087 
L 444.334446 32.126087 
L 451.518996 32.126087 
L 458.703545 32.126087 
L 465.888094 32.126087 
L 473.072644 32.126087 
L 480.257193 32.126087 
L 487.441743 32.126087 
L 494.626292 32.126087 
L 501.810841 32.126087 
L 508.995391 32.126087 
L 516.17994 32.126087 
L 523.364489 32.126087 
L 530.549039 32.126087 
L 537.733588 32.126087 
L 544.918137 32.126087 
L 552.102687 32.126087 
L 559.287236 32.126087 
L 566.471785 32.126087 
L 573.656335 32.126087 
L 580.840884 32.126087 
L 588.025434 32.126087 
L 595.209983 32.126087 
L 602.394532 30.756522 
L 609.579082 30.756522 
L 616.763631 30.756522 
L 623.94818 30.756522 
L 631.13273 30.756522 
L 638.317279 30.756522 
L 645.501828 30.756522 
L 652.686378 30.756522 
L 659.870927 30.756522 
L 667.055476 30.756522 
L 674.240026 30.756522 
L 681.424575 30.756522 
" clip-path="url(#p3f7feba8a0)" style="fill: none; stroke: #7f7f7f; stroke-width: 1.5; stroke-linecap: square"/>
   </g>
   <g id="line2d_41">
    <path d="M 77.922429 263.582609 
L 85.106979 263.582609 
L 92.291528 263.582609 
L 99.476077 262.213043 
L 106.660627 262.213043 
L 113.845176 260.843478 
L 121.029725 193.734783 
L 128.214275 167.713043 
L 135.398824 134.843478 
L 142.583373 130.734783 
L 149.767923 118.408696 
L 156.952472 111.56087 
L 164.137022 96.495652 
L 171.321571 84.169565 
L 178.50612 67.734783 
L 185.69067 59.517391 
L 192.875219 55.408696 
L 200.059768 51.3 
L 207.244318 48.56087 
L 214.428867 47.191304 
L 221.613416 43.082609 
L 228.797966 37.604348 
L 235.982515 36.234783 
L 243.167064 36.234783 
L 250.351614 36.234783 
L 257.536163 32.126087 
L 264.720713 32.126087 
L 271.905262 29.386957 
L 279.089811 29.386957 
L 286.274361 29.386957 
L 293.45891 29.386957 
L 300.643459 29.386957 
L 307.828009 29.386957 
L 315.012558 29.386957 
L 322.197107 29.386957 
L 329.381657 29.386957 
L 336.566206 26.647826 
L 343.750755 26.647826 
L 350.935305 26.647826 
L 358.119854 26.647826 
L 365.304403 26.647826 
L 372.488953 26.647826 
L 379.673502 26.647826 
L 386.858052 26.647826 
L 394.042601 26.647826 
L 401.22715 26.647826 
L 408.4117 26.647826 
L 415.596249 26.647826 
L 422.780798 26.647826 
L 429.965348 26.647826 
L 437.149897 26.647826 
L 444.334446 26.647826 
L 451.518996 25.278261 
L 458.703545 25.278261 
L 465.888094 25.278261 
L 473.072644 25.278261 
L 480.257193 25.278261 
L 487.441743 25.278261 
L 494.626292 25.278261 
L 501.810841 25.278261 
L 508.995391 25.278261 
L 516.17994 25.278261 
L 523.364489 25.278261 
L 530.549039 25.278261 
L 537.733588 25.278261 
L 544.918137 25.278261 
L 552.102687 25.278261 
L 559.287236 25.278261 
L 566.471785 23.908696 
L 573.656335 23.908696 
L 580.840884 23.908696 
L 588.025434 23.908696 
L 595.209983 23.908696 
L 602.394532 23.908696 
L 609.579082 23.908696 
L 616.763631 23.908696 
L 623.94818 23.908696 
L 631.13273 23.908696 
L 638.317279 23.908696 
L 645.501828 23.908696 
L 652.686378 23.908696 
L 659.870927 23.908696 
L 667.055476 23.908696 
L 674.240026 23.908696 
L 681.424575 23.908696 
" clip-path="url(#p3f7feba8a0)" style="fill: none; stroke: #bcbd22; stroke-width: 1.5; stroke-linecap: square"/>
   </g>
   <g id="line2d_42">
    <path d="M 77.922429 269.06087 
L 85.106979 267.691304 
L 92.291528 264.952174 
L 99.476077 263.582609 
L 106.660627 262.213043 
L 113.845176 259.473913 
L 121.029725 190.995652 
L 128.214275 169.082609 
L 135.398824 143.06087 
L 142.583373 118.408696 
L 149.767923 103.343478 
L 156.952472 92.386957 
L 164.137022 81.430435 
L 171.321571 64.995652 
L 178.50612 56.778261 
L 185.69067 54.03913 
L 192.875219 51.3 
L 200.059768 43.082609 
L 207.244318 43.082609 
L 214.428867 41.713043 
L 221.613416 41.713043 
L 228.797966 36.234783 
L 235.982515 36.234783 
L 243.167064 34.865217 
L 250.351614 34.865217 
L 257.536163 34.865217 
L 264.720713 33.495652 
L 271.905262 32.126087 
L 279.089811 32.126087 
L 286.274361 32.126087 
L 293.45891 30.756522 
L 300.643459 30.756522 
L 307.828009 30.756522 
L 315.012558 30.756522 
L 322.197107 29.386957 
L 329.381657 29.386957 
L 336.566206 26.647826 
L 343.750755 26.647826 
L 350.935305 26.647826 
L 358.119854 26.647826 
L 365.304403 26.647826 
L 372.488953 26.647826 
L 379.673502 26.647826 
L 386.858052 25.278261 
L 394.042601 25.278261 
L 401.22715 25.278261 
L 408.4117 25.278261 
L 415.596249 25.278261 
L 422.780798 23.908696 
L 429.965348 23.908696 
L 437.149897 23.908696 
L 444.334446 23.908696 
L 451.518996 23.908696 
L 458.703545 23.908696 
L 465.888094 23.908696 
L 473.072644 23.908696 
L 480.257193 23.908696 
L 487.441743 23.908696 
L 494.626292 23.908696 
L 501.810841 23.908696 
L 508.995391 22.53913 
L 516.17994 22.53913 
L 523.364489 22.53913 
L 530.549039 22.53913 
L 537.733588 21.169565 
L 544.918137 21.169565 
L 552.102687 21.169565 
L 559.287236 21.169565 
L 566.471785 21.169565 
L 573.656335 21.169565 
L 580.840884 21.169565 
L 588.025434 21.169565 
L 595.209983 21.169565 
L 602.394532 21.169565 
L 609.579082 21.169565 
L 616.763631 19.8 
L 623.94818 19.8 
L 631.13273 19.8 
L 638.317279 19.8 
L 645.501828 19.8 
L 652.686378 19.8 
L 659.870927 19.8 
L 667.055476 19.8 
L 674.240026 19.8 
L 681.424575 19.8 
" clip-path="url(#p3f7feba8a0)" style="fill: none; stroke: #17becf; stroke-width: 1.5; stroke-linecap: square"/>
   </g>
   <g id="patch_3">
    <path d="M 41.999682 284.4 
L 41.999682 7.2 
" style="fill: none; stroke: #000000; stroke-width: 0.8; stroke-linejoin: miter; stroke-linecap: square"/>
   </g>
   <g id="patch_4">
    <path d="M 711.599682 284.4 
L 711.599682 7.2 
" style="fill: none; stroke: #000000; stroke-width: 0.8; stroke-linejoin: miter; stroke-linecap: square"/>
   </g>
   <g id="patch_5">
    <path d="M 41.999682 284.4 
L 711.599682 284.4 
" style="fill: none; stroke: #000000; stroke-width: 0.8; stroke-linejoin: miter; stroke-linecap: square"/>
   </g>
   <g id="patch_6">
    <path d="M 41.999682 7.2 
L 711.599682 7.2 
" style="fill: none; stroke: #000000; stroke-width: 0.8; stroke-linejoin: miter; stroke-linecap: square"/>
   </g>
   <g id="legend_1">
    <g id="patch_7">
     <path d="M 611.661422 279.4 
L 704.599682 279.4 
Q 706.599682 279.4 706.599682 277.4 
L 706.599682 166.902573 
Q 706.599682 164.902573 704.599682 164.902573 
L 611.661422 164.902573 
Q 609.661422 164.902573 609.661422 166.902573 
L 609.661422 277.4 
Q 609.661422 279.4 611.661422 279.4 
z
" style="fill: #ffffff; opacity: 0.8; stroke: #cccccc; stroke-linejoin: miter"/>
    </g>
    <g id="line2d_43">
     <path d="M 613.661422 172.402573 
L 623.661422 172.402573 
L 633.661422 172.402573 
" style="fill: none; stroke: #1f77b4; stroke-width: 1.5; stroke-linecap: square"/>
    </g>
    <g id="text_20">
     <!-- TypeScript 4.9 -->
     <g transform="translate(641.661422 175.902573) scale(0.1 -0.1)">
      <defs>
       <path id="CMSS17-54" d="M 2317 3968 
L 2848 3968 
C 2925 3968 3002 3968 3078 3968 
L 3878 3968 
L 3878 4376 
L 218 4376 
L 218 3968 
L 1018 3968 
C 1094 3968 1171 3968 1248 3968 
L 1779 3968 
L 1779 -32 
L 2317 -32 
L 2317 3968 
z
" transform="scale(0.015625)"/>
       <path id="CMSS17-53" d="M 2797 4169 
C 2515 4334 2208 4480 1690 4480 
C 864 4480 333 3879 333 3266 
C 333 3025 403 2753 653 2475 
C 902 2196 1184 2121 1542 2033 
C 1690 1994 1939 1924 1984 1906 
C 2342 1767 2515 1444 2515 1140 
C 2515 742 2202 318 1645 318 
C 1453 318 890 318 358 819 
L 269 318 
C 794 -64 1363 -128 1651 -128 
C 2438 -128 3002 488 3002 1186 
C 3002 1440 2925 1763 2656 2061 
C 2394 2347 2163 2410 1638 2549 
C 1338 2626 1146 2677 986 2873 
C 877 3013 819 3146 819 3317 
C 819 3673 1126 4060 1690 4060 
C 1971 4060 2336 4002 2707 3660 
L 2797 4169 
z
" transform="scale(0.015625)"/>
       <path id="CMSS17-34" d="M 2253 1088 
L 2835 1088 
L 2835 1477 
L 2253 1477 
L 2253 4192 
L 1690 4192 
L 166 1477 
L 166 1088 
L 1747 1088 
L 1747 0 
L 2253 0 
L 2253 1088 
z
M 659 1477 
C 1030 2127 1766 3439 1766 3885 
L 1766 1477 
L 659 1477 
z
" transform="scale(0.015625)"/>
       <path id="CMSS17-2e" d="M 1088 510 
L 576 510 
L 576 0 
L 1088 0 
L 1088 510 
z
" transform="scale(0.015625)"/>
       <path id="CMSS17-39" d="M 435 174 
C 614 21 845 -128 1235 -128 
C 2010 -128 2752 721 2752 2095 
C 2752 3932 1952 4229 1523 4229 
C 1094 4229 819 4041 582 3741 
C 301 3397 250 3090 250 2733 
C 250 2307 326 2045 506 1745 
C 749 1357 973 1275 1222 1275 
C 1600 1275 1978 1459 2234 1776 
C 2189 902 1798 267 1235 267 
C 1005 267 819 339 634 516 
L 435 174 
z
M 2214 2746 
C 2221 2703 2221 2622 2221 2596 
C 2221 2074 1914 1664 1466 1664 
C 1171 1664 1018 1813 902 2006 
C 762 2249 755 2485 755 2733 
C 755 2976 755 3244 934 3511 
C 1069 3703 1235 3840 1523 3840 
C 2112 3840 2208 3000 2214 2746 
z
" transform="scale(0.015625)"/>
      </defs>
      <use xlink:href="#CMSS17-54" transform="scale(0.996264)"/>
      <use xlink:href="#CMSS17-79" transform="translate(56.012199 0) scale(0.996264)"/>
      <use xlink:href="#CMSS17-70" transform="translate(99.01234 0) scale(0.996264)"/>
      <use xlink:href="#CMSS17-65" transform="translate(149.819722 0) scale(0.996264)"/>
      <use xlink:href="#CMSS17-53" transform="translate(191.458544 0) scale(0.996264)"/>
      <use xlink:href="#CMSS17-63" transform="translate(243.50706 0) scale(0.996264)"/>
      <use xlink:href="#CMSS17-72" transform="translate(285.145882 0) scale(0.996264)"/>
      <use xlink:href="#CMSS17-69" transform="translate(317.055655 0) scale(0.996264)"/>
      <use xlink:href="#CMSS17-70" transform="translate(339.236378 0) scale(0.996264)"/>
      <use xlink:href="#CMSS17-74" transform="translate(387.441321 0) scale(0.996264)"/>
      <use xlink:href="#CMSS17-34" transform="translate(452.502001 0) scale(0.996264)"/>
      <use xlink:href="#CMSS17-2e" transform="translate(499.345624 0) scale(0.996264)"/>
      <use xlink:href="#CMSS17-39" transform="translate(525.369829 0) scale(0.996264)"/>
     </g>
    </g>
    <g id="line2d_44">
     <path d="M 613.661422 186.339752 
L 623.661422 186.339752 
L 633.661422 186.339752 
" style="fill: none; stroke: #ff7f0e; stroke-width: 1.5; stroke-linecap: square"/>
    </g>
    <g id="text_21">
     <!-- TypeScript 4.7 -->
     <g transform="translate(641.661422 189.839752) scale(0.1 -0.1)">
      <defs>
       <path id="CMSS17-37" d="M 1389 3776 
C 1466 3776 1542 3776 1619 3776 
L 2355 3776 
C 1440 2711 915 1365 915 -32 
L 1427 -32 
C 1427 1323 1875 2696 2752 3795 
L 2752 4209 
L 250 4209 
L 250 3776 
L 1389 3776 
z
" transform="scale(0.015625)"/>
      </defs>
      <use xlink:href="#CMSS17-54" transform="scale(0.996264)"/>
      <use xlink:href="#CMSS17-79" transform="translate(56.012199 0) scale(0.996264)"/>
      <use xlink:href="#CMSS17-70" transform="translate(99.01234 0) scale(0.996264)"/>
      <use xlink:href="#CMSS17-65" transform="translate(149.819722 0) scale(0.996264)"/>
      <use xlink:href="#CMSS17-53" transform="translate(191.458544 0) scale(0.996264)"/>
      <use xlink:href="#CMSS17-63" transform="translate(243.50706 0) scale(0.996264)"/>
      <use xlink:href="#CMSS17-72" transform="translate(285.145882 0) scale(0.996264)"/>
      <use xlink:href="#CMSS17-69" transform="translate(317.055655 0) scale(0.996264)"/>
      <use xlink:href="#CMSS17-70" transform="translate(339.236378 0) scale(0.996264)"/>
      <use xlink:href="#CMSS17-74" transform="translate(387.441321 0) scale(0.996264)"/>
      <use xlink:href="#CMSS17-34" transform="translate(452.502001 0) scale(0.996264)"/>
      <use xlink:href="#CMSS17-2e" transform="translate(499.345624 0) scale(0.996264)"/>
      <use xlink:href="#CMSS17-37" transform="translate(525.369829 0) scale(0.996264)"/>
     </g>
    </g>
    <g id="line2d_45">
     <path d="M 613.661422 200.27693 
L 623.661422 200.27693 
L 633.661422 200.27693 
" style="fill: none; stroke: #2ca02c; stroke-width: 1.5; stroke-linecap: square"/>
    </g>
    <g id="text_22">
     <!-- TypeScript 4.5 -->
     <g transform="translate(641.661422 203.77693) scale(0.1 -0.1)">
      <defs>
       <path id="CMSS17-35" d="M 934 3752 
L 2502 3752 
L 2502 4160 
L 467 4160 
L 467 1781 
L 896 1781 
C 1011 2046 1248 2240 1555 2240 
C 1843 2240 2163 1989 2163 1266 
C 2163 493 1709 267 1376 267 
C 966 267 589 512 422 851 
L 218 499 
C 512 49 992 -128 1376 -128 
C 2118 -128 2701 497 2701 1253 
C 2701 2030 2182 2629 1562 2629 
C 1338 2629 1120 2553 934 2399 
L 934 3752 
z
" transform="scale(0.015625)"/>
      </defs>
      <use xlink:href="#CMSS17-54" transform="scale(0.996264)"/>
      <use xlink:href="#CMSS17-79" transform="translate(56.012199 0) scale(0.996264)"/>
      <use xlink:href="#CMSS17-70" transform="translate(99.01234 0) scale(0.996264)"/>
      <use xlink:href="#CMSS17-65" transform="translate(149.819722 0) scale(0.996264)"/>
      <use xlink:href="#CMSS17-53" transform="translate(191.458544 0) scale(0.996264)"/>
      <use xlink:href="#CMSS17-63" transform="translate(243.50706 0) scale(0.996264)"/>
      <use xlink:href="#CMSS17-72" transform="translate(285.145882 0) scale(0.996264)"/>
      <use xlink:href="#CMSS17-69" transform="translate(317.055655 0) scale(0.996264)"/>
      <use xlink:href="#CMSS17-70" transform="translate(339.236378 0) scale(0.996264)"/>
      <use xlink:href="#CMSS17-74" transform="translate(387.441321 0) scale(0.996264)"/>
      <use xlink:href="#CMSS17-34" transform="translate(452.502001 0) scale(0.996264)"/>
      <use xlink:href="#CMSS17-2e" transform="translate(499.345624 0) scale(0.996264)"/>
      <use xlink:href="#CMSS17-35" transform="translate(525.369829 0) scale(0.996264)"/>
     </g>
    </g>
    <g id="line2d_46">
     <path d="M 613.661422 214.214108 
L 623.661422 214.214108 
L 633.661422 214.214108 
" style="fill: none; stroke: #9467bd; stroke-width: 1.5; stroke-linecap: square"/>
    </g>
    <g id="text_23">
     <!-- TypeScript 4.4 -->
     <g transform="translate(641.661422 217.714108) scale(0.1 -0.1)">
      <use xlink:href="#CMSS17-54" transform="scale(0.996264)"/>
      <use xlink:href="#CMSS17-79" transform="translate(56.012199 0) scale(0.996264)"/>
      <use xlink:href="#CMSS17-70" transform="translate(99.01234 0) scale(0.996264)"/>
      <use xlink:href="#CMSS17-65" transform="translate(149.819722 0) scale(0.996264)"/>
      <use xlink:href="#CMSS17-53" transform="translate(191.458544 0) scale(0.996264)"/>
      <use xlink:href="#CMSS17-63" transform="translate(243.50706 0) scale(0.996264)"/>
      <use xlink:href="#CMSS17-72" transform="translate(285.145882 0) scale(0.996264)"/>
      <use xlink:href="#CMSS17-69" transform="translate(317.055655 0) scale(0.996264)"/>
      <use xlink:href="#CMSS17-70" transform="translate(339.236378 0) scale(0.996264)"/>
      <use xlink:href="#CMSS17-74" transform="translate(387.441321 0) scale(0.996264)"/>
      <use xlink:href="#CMSS17-34" transform="translate(452.502001 0) scale(0.996264)"/>
      <use xlink:href="#CMSS17-2e" transform="translate(499.345624 0) scale(0.996264)"/>
      <use xlink:href="#CMSS17-34" transform="translate(525.369829 0) scale(0.996264)"/>
     </g>
    </g>
    <g id="line2d_47">
     <path d="M 613.661422 228.151287 
L 623.661422 228.151287 
L 633.661422 228.151287 
" style="fill: none; stroke: #8c564b; stroke-width: 1.5; stroke-linecap: square"/>
    </g>
    <g id="text_24">
     <!-- TypeScript 4.3 -->
     <g transform="translate(641.661422 231.651287) scale(0.1 -0.1)">
      <defs>
       <path id="CMSS17-33" d="M 1005 2025 
L 1440 2025 
C 2042 2025 2214 1507 2214 1146 
C 2214 653 1933 267 1472 267 
C 1114 267 608 444 320 912 
C 275 691 275 678 250 526 
C 550 88 1037 -128 1485 -128 
C 2214 -128 2752 473 2752 1138 
C 2752 1638 2400 2057 1920 2215 
C 2304 2424 2586 2816 2586 3273 
C 2586 3805 2093 4229 1491 4229 
C 941 4229 512 3892 333 3530 
C 378 3468 493 3284 550 3189 
C 691 3562 1056 3840 1485 3840 
C 1843 3840 2080 3607 2080 3271 
C 2080 2923 1856 2543 1478 2455 
C 1453 2455 1056 2417 1005 2411 
L 1005 2025 
z
" transform="scale(0.015625)"/>
      </defs>
      <use xlink:href="#CMSS17-54" transform="scale(0.996264)"/>
      <use xlink:href="#CMSS17-79" transform="translate(56.012199 0) scale(0.996264)"/>
      <use xlink:href="#CMSS17-70" transform="translate(99.01234 0) scale(0.996264)"/>
      <use xlink:href="#CMSS17-65" transform="translate(149.819722 0) scale(0.996264)"/>
      <use xlink:href="#CMSS17-53" transform="translate(191.458544 0) scale(0.996264)"/>
      <use xlink:href="#CMSS17-63" transform="translate(243.50706 0) scale(0.996264)"/>
      <use xlink:href="#CMSS17-72" transform="translate(285.145882 0) scale(0.996264)"/>
      <use xlink:href="#CMSS17-69" transform="translate(317.055655 0) scale(0.996264)"/>
      <use xlink:href="#CMSS17-70" transform="translate(339.236378 0) scale(0.996264)"/>
      <use xlink:href="#CMSS17-74" transform="translate(387.441321 0) scale(0.996264)"/>
      <use xlink:href="#CMSS17-34" transform="translate(452.502001 0) scale(0.996264)"/>
      <use xlink:href="#CMSS17-2e" transform="translate(499.345624 0) scale(0.996264)"/>
      <use xlink:href="#CMSS17-33" transform="translate(525.369829 0) scale(0.996264)"/>
     </g>
    </g>
    <g id="line2d_48">
     <path d="M 613.661422 242.088465 
L 623.661422 242.088465 
L 633.661422 242.088465 
" style="fill: none; stroke: #7f7f7f; stroke-width: 1.5; stroke-linecap: square"/>
    </g>
    <g id="text_25">
     <!-- TypeScript 4.2 -->
     <g transform="translate(641.661422 245.588465) scale(0.1 -0.1)">
      <defs>
       <path id="CMSS17-32" d="M 1651 1357 
C 1830 1541 2099 1764 2285 1987 
C 2464 2204 2701 2511 2701 2957 
C 2701 3657 2227 4288 1421 4288 
C 787 4288 422 3893 250 3274 
L 499 2929 
C 640 3510 838 3880 1338 3880 
C 1888 3880 2195 3433 2195 2942 
C 2195 2355 1747 1901 1408 1563 
C 1030 1187 659 804 301 408 
L 301 0 
L 2701 0 
L 2701 433 
L 1613 433 
C 1536 433 1459 433 1382 433 
L 742 433 
L 742 439 
L 1651 1357 
z
" transform="scale(0.015625)"/>
      </defs>
      <use xlink:href="#CMSS17-54" transform="scale(0.996264)"/>
      <use xlink:href="#CMSS17-79" transform="translate(56.012199 0) scale(0.996264)"/>
      <use xlink:href="#CMSS17-70" transform="translate(99.01234 0) scale(0.996264)"/>
      <use xlink:href="#CMSS17-65" transform="translate(149.819722 0) scale(0.996264)"/>
      <use xlink:href="#CMSS17-53" transform="translate(191.458544 0) scale(0.996264)"/>
      <use xlink:href="#CMSS17-63" transform="translate(243.50706 0) scale(0.996264)"/>
      <use xlink:href="#CMSS17-72" transform="translate(285.145882 0) scale(0.996264)"/>
      <use xlink:href="#CMSS17-69" transform="translate(317.055655 0) scale(0.996264)"/>
      <use xlink:href="#CMSS17-70" transform="translate(339.236378 0) scale(0.996264)"/>
      <use xlink:href="#CMSS17-74" transform="translate(387.441321 0) scale(0.996264)"/>
      <use xlink:href="#CMSS17-34" transform="translate(452.502001 0) scale(0.996264)"/>
      <use xlink:href="#CMSS17-2e" transform="translate(499.345624 0) scale(0.996264)"/>
      <use xlink:href="#CMSS17-32" transform="translate(525.369829 0) scale(0.996264)"/>
     </g>
    </g>
    <g id="line2d_49">
     <path d="M 613.661422 256.025643 
L 623.661422 256.025643 
L 633.661422 256.025643 
" style="fill: none; stroke: #bcbd22; stroke-width: 1.5; stroke-linecap: square"/>
    </g>
    <g id="text_26">
     <!-- TypeScript 4.1 -->
     <g transform="translate(641.661422 259.525643) scale(0.1 -0.1)">
      <defs>
       <path id="CMSS17-31" d="M 1818 4288 
L 1696 4288 
C 1350 3940 947 3890 538 3890 
L 538 3520 
C 723 3520 1024 3520 1325 3667 
L 1325 369 
L 570 369 
L 570 0 
L 2573 0 
L 2573 369 
L 1818 369 
L 1818 4288 
z
" transform="scale(0.015625)"/>
      </defs>
      <use xlink:href="#CMSS17-54" transform="scale(0.996264)"/>
      <use xlink:href="#CMSS17-79" transform="translate(56.012199 0) scale(0.996264)"/>
      <use xlink:href="#CMSS17-70" transform="translate(99.01234 0) scale(0.996264)"/>
      <use xlink:href="#CMSS17-65" transform="translate(149.819722 0) scale(0.996264)"/>
      <use xlink:href="#CMSS17-53" transform="translate(191.458544 0) scale(0.996264)"/>
      <use xlink:href="#CMSS17-63" transform="translate(243.50706 0) scale(0.996264)"/>
      <use xlink:href="#CMSS17-72" transform="translate(285.145882 0) scale(0.996264)"/>
      <use xlink:href="#CMSS17-69" transform="translate(317.055655 0) scale(0.996264)"/>
      <use xlink:href="#CMSS17-70" transform="translate(339.236378 0) scale(0.996264)"/>
      <use xlink:href="#CMSS17-74" transform="translate(387.441321 0) scale(0.996264)"/>
      <use xlink:href="#CMSS17-34" transform="translate(452.502001 0) scale(0.996264)"/>
      <use xlink:href="#CMSS17-2e" transform="translate(499.345624 0) scale(0.996264)"/>
      <use xlink:href="#CMSS17-31" transform="translate(525.369829 0) scale(0.996264)"/>
     </g>
    </g>
    <g id="line2d_50">
     <path d="M 613.661422 269.962822 
L 623.661422 269.962822 
L 633.661422 269.962822 
" style="fill: none; stroke: #17becf; stroke-width: 1.5; stroke-linecap: square"/>
    </g>
    <g id="text_27">
     <!-- TypeScript 4.0 -->
     <g transform="translate(641.661422 273.462822) scale(0.1 -0.1)">
      <defs>
       <path id="CMSS17-30" d="M 2758 2044 
C 2758 2405 2752 3077 2490 3596 
C 2227 4096 1805 4229 1504 4229 
C 1069 4229 698 3975 506 3570 
C 301 3146 243 2709 243 2044 
C 243 1589 262 1031 493 543 
C 755 5 1197 -128 1498 -128 
C 1894 -128 2278 81 2496 518 
C 2720 974 2758 1474 2758 2044 
z
M 1498 261 
C 1011 261 864 811 819 995 
C 742 1310 730 1614 730 2114 
C 730 2506 730 2948 851 3297 
C 998 3701 1254 3840 1498 3840 
C 1971 3840 2125 3372 2176 3208 
C 2272 2873 2272 2481 2272 2114 
C 2272 1526 2272 261 1498 261 
z
" transform="scale(0.015625)"/>
      </defs>
      <use xlink:href="#CMSS17-54" transform="scale(0.996264)"/>
      <use xlink:href="#CMSS17-79" transform="translate(56.012199 0) scale(0.996264)"/>
      <use xlink:href="#CMSS17-70" transform="translate(99.01234 0) scale(0.996264)"/>
      <use xlink:href="#CMSS17-65" transform="translate(149.819722 0) scale(0.996264)"/>
      <use xlink:href="#CMSS17-53" transform="translate(191.458544 0) scale(0.996264)"/>
      <use xlink:href="#CMSS17-63" transform="translate(243.50706 0) scale(0.996264)"/>
      <use xlink:href="#CMSS17-72" transform="translate(285.145882 0) scale(0.996264)"/>
      <use xlink:href="#CMSS17-69" transform="translate(317.055655 0) scale(0.996264)"/>
      <use xlink:href="#CMSS17-70" transform="translate(339.236378 0) scale(0.996264)"/>
      <use xlink:href="#CMSS17-74" transform="translate(387.441321 0) scale(0.996264)"/>
      <use xlink:href="#CMSS17-34" transform="translate(452.502001 0) scale(0.996264)"/>
      <use xlink:href="#CMSS17-2e" transform="translate(499.345624 0) scale(0.996264)"/>
      <use xlink:href="#CMSS17-30" transform="translate(525.369829 0) scale(0.996264)"/>
     </g>
    </g>
   </g>
  </g>
 </g>
 <defs>
  <clipPath id="p3f7feba8a0">
   <rect x="41.999682" y="7.2" width="669.6" height="277.2"/>
  </clipPath>
 </defs>
</svg>
